<svg width="30" height="30" viewBox="0 0 30 30" fill="none" xmlns="http://www.w3.org/2000/svg">
<path d="M10.1871 25.9024L5.08088 26.6885C4.67487 26.7505 4.27092 26.5623 4.05565 26.2094L2.1516 23.0872C2.0454 22.913 1.99686 22.7147 2.00245 22.5173C2.00164 22.5008 2 22.4847 2 22.4681V15.8633C2 15.2936 2.45781 14.832 3.02251 14.832C3.5872 14.832 4.04501 15.2936 4.04501 15.8633V18.6035L8.13285 11.2606L10.1871 14.7968V25.9024ZM26.9775 14.8318C26.4127 14.8318 25.955 15.2935 25.955 15.8632V18.6034L21.8673 11.2606L19.813 14.7969V25.9025L24.9193 26.6887C25.325 26.7508 25.7292 26.5624 25.9446 26.2094L27.8485 23.0872C27.9547 22.9131 28.0031 22.7148 27.9975 22.5175C27.9984 22.501 28 22.4849 28 22.4682V15.8634C28 15.2936 27.5422 14.8318 26.9775 14.8318ZM17.768 25.946L16.0225 27.2588V28.9686C16.0225 29.5384 15.5648 30 15 30C14.4353 30 13.9775 29.5384 13.9775 28.9686V27.2588L12.232 25.946V14.5169C12.232 14.3336 12.1836 14.1536 12.0917 13.9955L9.29265 9.17698L14.1084 0.526403C14.2894 0.20132 14.6304 0 15 0C15.3697 0 15.7106 0.20132 15.8916 0.526403L20.7074 9.17698L17.9083 13.9955C17.8164 14.1536 17.768 14.3336 17.768 14.5169V25.946ZM17.7632 9.43523C18.1987 9.07274 18.2604 8.42272 17.9012 7.98322C17.7829 7.83842 16.6961 6.56903 15.0259 6.56903C13.3731 6.56903 12.2418 7.81807 12.1183 7.96053C11.7464 8.38916 11.7867 9.04373 12.2118 9.41873C12.4067 9.59062 12.6471 9.67519 12.8865 9.67519C13.1694 9.67519 13.4507 9.55707 13.6521 9.32481C13.8249 9.13201 14.4087 8.6316 15.026 8.6316C15.7508 8.6316 16.3238 9.29593 16.3238 9.29593C16.6832 9.73542 17.3276 9.79772 17.7632 9.43523Z" fill="#32174A"/>
</svg>
